<?xml version="1.0" encoding="utf-8"?>
<!-- Generator: Adobe Illustrator 21.1.0, SVG Export Plug-In . SVG Version: 6.00 Build 0)  -->
<svg version="1.1" id="Слой_1" xmlns="http://www.w3.org/2000/svg" xmlns:xlink="http://www.w3.org/1999/xlink" x="0px" y="0px"
	 viewBox="0 0 78.7 99.2" style="enable-background:new 0 0 78.7 99.2;" xml:space="preserve">
<style type="text/css">
	.st0{fill-rule:evenodd;clip-rule:evenodd;fill:url(#SVGID_1_);}
</style>
<g>
	<g>
		<linearGradient id="SVGID_1_" gradientUnits="userSpaceOnUse" x1="48.8605" y1="100.3141" x2="26.0669" y2="1.5841">
			<stop  offset="0" style="stop-color:#0D887B"/>
			<stop  offset="1" style="stop-color:#38959F"/>
		</linearGradient>
		<path class="st0" d="M78.1,41.5c-1.3-3-4.3-4.5-7-4.7c-2.7-0.1-4.6,1.1-5.3,1.6c-3.2,3.2-6.4,6.4-9.6,9.6
			c-0.1-2.6-0.1-5.2-0.2-7.8c0-10.6,2.7-28.3-4.6-32c-3.2-1.6-6.4-0.6-9,0.8c0.3-12.1-18-12.4-17.6,1.6c-5-3.2-11.6-1.2-13.2,4
			c-0.1,4-0.3,8-0.4,12c-3.5-1.1-7.5-1.2-9.6,1.6c-2.1,2.8-1.6,8.5-1.6,13.4c0,12.2-0.8,24.1,2.4,33c1.1,3.1,2.1,6.1,3.2,9.2
			c0,5.1,0,10.3,0,15.4c16,0,32,0,48,0c0-4.9,0-9.9,0-14.8C61.7,72.2,69.8,60,77.9,47.8C78.1,47.3,79.4,44.5,78.1,41.5z M69.5,55
			c-6.3,9.5-12.7,19.1-19,28.6c0,4.1,0,8.3,0,12.4c-13.9,0-27.7,0-41.6,0c0-4.3,0-8.5,0-12.8C7,78.1,5.1,72.9,3.3,67.8
			c0-6.1,0-12.1,0-18.2c0-4.5-1.1-15.7,0.6-18.6c1.1-2.4,5.2-2.9,6.8-0.6c1.4,2.1,0.7,13.9,0.6,17.6c1.1,0,2.1,0,3.2,0
			c0-7.9,0-15.7,0-23.6c0-2.9-0.5-6.9,0.4-9.2c0.6-1.4,2.2-2.8,3.8-3.2c2.8-0.7,5.4,1.5,6,3.2c0.1,9.6,0.1,19.2,0.2,28.8
			c1.1,0,2.1,0,3.2,0c0.1-12.3,0.1-24.7,0.2-37c0.5-1.8,2.2-3.4,4-3.8c2.9-0.7,5.5,1,6.4,2.4c1.4,2.2,0.6,7.8,0.6,11
			c0,9.1,0,18.3,0,27.4c1.1,0,2.1,0,3.2,0c0-7.2,0-14.4,0-21.6c0.1-2.9,0.3-5.9,0.4-8.8c0.7-1.7,2.9-3.8,5.8-3.2
			c4.8,1,4.2,5.8,4.2,11.6c0,9.8,0,19.6,0,29.4c-1.7,2.4-4.8,6.2-8.4,4.4c-0.7,0.7-1.5,1.5-2.2,2.2c1.4,0.9,3.7,2.3,6.4,1.4
			c3.4-1.2,12.6-11.8,15.6-14.8c1.8-1.8,4.9-6.3,8.8-3.8C78.5,44.2,71.5,52,69.5,55z"/>
	</g>
</g>
</svg>
