<?xml version="1.0" encoding="utf-8"?>
<!-- Generator: Adobe Illustrator 21.1.0, SVG Export Plug-In . SVG Version: 6.00 Build 0)  -->
<svg version="1.1" xmlns="http://www.w3.org/2000/svg" xmlns:xlink="http://www.w3.org/1999/xlink" x="0px" y="0px"
	 viewBox="0 0 454 102.9" style="enable-background:new 0 0 454 102.9;" xml:space="preserve">
<style type="text/css">
	.st0{fill:#0A887B;}
	.st1{fill:#00ED97;}
	.st2{fill:#FFFFFF;}
	.st3{fill:#F9F9F9;}
	.st4{fill:#FCFCFC;}
</style>
<g id="Слой_3">
</g>
<g id="Слой_4">
	<path class="st0" d="M294.3,62.2l-22.8,21.2c-80.8,0.1-161.7,0.3-242.5,0.4c-9.5,0-28.3-16.7-28.3-25c0-15.3,0.1-30.7,0.1-46
		c88.1,0,176.2-0.1,264.3-0.1c-3.9,6.7-7.8,13.4-11.8,20.2c6,2.9,12.8,6.7,19.9,11.6C281.9,50.5,288.9,56.7,294.3,62.2z"/>
	<path class="st1" d="M101.6-5.1"/>
	<path class="st1" d="M0,83.8"/>
</g>
<g id="Capa_1">
	<g>
		<path class="st2" d="M57.5,55.5H18.8c0,1.1-0.1,2-0.1,2.8c0,4.3,1.1,7.5,3.4,9.7c2.3,2.2,5,3.3,8.2,3.3c5.9,0,9.5-3.2,10.7-9.5
			L57.1,63c-4.5,13.9-13.6,20.8-27.3,20.8c-6,0-11.1-1.2-15.3-3.6c-4.2-2.4-7.6-5.9-10.4-10.5C1.4,65.1,0,59.6,0,53.1
			C0,43.6,2.7,35.8,8.2,30c5.5-5.9,12.5-8.8,21.1-8.8c7.7,0,14.4,2.7,19.9,8.2C54.7,34.8,57.5,43.5,57.5,55.5z M18.7,45.2h21.4
			c-0.6-8.3-4-12.4-10.2-12.4C23.2,32.8,19.5,36.9,18.7,45.2z"/>
		<path class="st3" d="M121.2,82.6H104c-0.6-2.4-0.8-5.5-0.8-9.4c-3,4.3-6,7.1-9,8.5s-6.4,2.1-10.2,2.1c-5.6,0-10.2-1.5-13.6-4.6
			c-3.5-3.1-5.2-7.2-5.2-12.3c0-3.8,1-7.2,3-10.4c2-3.2,5.3-5.7,9.8-7.5c4.5-1.8,12.6-3.1,24.5-4v-3.5c0-5.8-2.9-8.8-8.7-8.8
			c-6.2,0-9.7,2.9-10.4,8.8L66.8,40c1.1-6.8,4.3-11.7,9.7-14.5c5.4-2.9,11.5-4.3,18.3-4.3c4.1,0,7.9,0.5,11.6,1.4
			c3.6,1,6.4,2.4,8.5,4.3s3.4,3.9,4.1,6c0.7,2.1,1.1,5.8,1.1,11.1v27.3C120.1,76.5,120.5,80.3,121.2,82.6z M102.3,53.7
			C90,55,83.8,58.7,83.8,65c0,2.1,0.7,3.9,2,5.5c1.3,1.5,3.2,2.3,5.6,2.3c3.1,0,5.8-1.3,7.9-3.9c2.1-2.6,3.2-5.8,3.2-9.6V53.7z"/>
		<path class="st4" d="M179.8,36.9l-12.9,3.5c-1.5-5.4-5.4-8.2-11.7-8.2c-6,0-8.9,1.8-8.9,5.4c0,1.4,0.5,2.6,1.6,3.4
			c1.1,0.9,3.9,1.6,8.5,2.2c6.9,0.9,12,2,15.3,3.1c3.3,1.2,5.9,3.2,7.8,6c1.9,2.8,2.9,6.3,2.9,10.4c0,6.2-2.4,11.2-7.1,15.1
			c-4.7,3.9-11.3,5.8-19.7,5.8c-15.3,0-24.5-5.9-27.5-17.8l15-2.2c1.2,5.4,5.7,8.1,13.3,8.1c2.9,0,5.4-0.5,7.4-1.6
			c2-1.1,3-2.5,3-4.3c0-2.8-2.2-4.4-6.7-4.9c-12.2-1.5-20.1-3.8-24-7c-3.8-3.2-5.7-7.6-5.7-13.2c0-5.7,2.2-10.4,6.7-14.2
			c4.4-3.7,10.7-5.6,18.7-5.6c6.4,0,11.4,1.3,15.3,3.8S177.8,31.4,179.8,36.9z"/>
		<path class="st2" d="M239.1,22.4l-18.9,57.7c-2.1,6.4-3.9,11.1-5.4,14c-1.5,2.9-3.6,5.2-6.4,6.9c-2.8,1.7-6.7,2.6-11.7,2.6
			c-2.5,0-5.3-0.2-8.5-0.7V89.2c3.1,0.6,6.1,0.8,8.7,0.8c3.5,0,5.9-0.7,7-2c1.2-1.3,2.1-3.2,2.7-5.5l-21.9-60.2h18.8l11.6,35.8
			l11.1-35.8H239.1z"/>
		<path class="st0" d="M303.8,19.1l-16.2,5.4c-2.2-6.4-6.8-9.7-13.8-9.7c-7.5,0-11.3,2.4-11.3,7.3c0,1.9,0.7,3.6,2.1,4.9
			c1.4,1.4,4.6,2.5,9.5,3.5c8.3,1.7,14.4,3.4,18.2,5.1c3.8,1.7,7.1,4.5,9.7,8.2s4,8,4,12.7c0,7.3-2.8,13.7-8.5,19.1
			c-5.7,5.4-14,8-25.1,8c-8.3,0-15.4-1.9-21.3-5.7c-5.9-3.8-9.7-9.4-11.6-16.9l17.6-4c2,7.6,7.5,11.4,16.5,11.4
			c4.4,0,7.6-0.8,9.8-2.5c2.1-1.7,3.2-3.7,3.2-6c0-2.4-1-4.2-2.9-5.5s-5.7-2.5-11.2-3.7c-10.4-2.1-17.7-5.1-22.1-8.8
			c-4.4-3.7-6.6-9.1-6.6-16.3c0-7.2,2.6-13.3,7.9-18.3C256.9,2.5,264,0,273,0C289,0,299.2,6.4,303.8,19.1z"/>
		<path class="st0" d="M337.2,1.3v38.2l25.5-38.2h18.2l-19.5,29l24.4,52.3h-21l-16.2-35.3l-11.4,16.7v18.6h-18.7V1.3H337.2z"/>
		<path class="st0" d="M454,1.3l-25.6,47.1v34.3h-19V48.3L383.9,1.3H406L421.5,32L437,1.3H454z"/>
	</g>
	<g id="Слой_2">
	</g>
</g>
</svg>
