<?xml version="1.0" encoding="utf-8"?>
<!-- Generator: Adobe Illustrator 21.1.0, SVG Export Plug-In . SVG Version: 6.00 Build 0)  -->
<svg version="1.1" xmlns="http://www.w3.org/2000/svg" xmlns:xlink="http://www.w3.org/1999/xlink" x="0px" y="0px"
	 viewBox="0 0 480.3 575" style="enable-background:new 0 0 480.3 575;" xml:space="preserve">
<style type="text/css">
	.st0{fill:#0A887B;}
	.st1{fill:#00ED97;}
	.st2{fill:#FFFFFF;}
	.st3{fill:#F9F9F9;}
	.st4{fill:#FCFCFC;}
	.st5{fill-rule:evenodd;clip-rule:evenodd;fill:url(#SVGID_1_);}
</style>
<g id="Слой_3">
</g>
<g id="Слой_4">
	<path class="st0" d="M320.6,534.3l-22.8,21.2c-80.8,0.1-161.7,0.3-242.5,0.4c-9.5,0-28.3-16.7-28.3-25c0-15.3,0.1-30.7,0.1-46
		c88.1,0,176.2-0.1,264.3-0.1c-3.9,6.7-7.8,13.4-11.8,20.2c6,2.9,12.8,6.7,19.9,11.6C308.1,522.6,315.1,528.8,320.6,534.3z"/>
	<path class="st1" d="M127.8,467"/>
	<path class="st1" d="M26.2,555.9"/>
</g>
<g id="Capa_1">
	<g>
		<path class="st2" d="M83.7,527.6H45c0,1.1-0.1,2-0.1,2.8c0,4.3,1.1,7.5,3.4,9.7c2.3,2.2,5,3.3,8.2,3.3c5.9,0,9.5-3.2,10.7-9.5
			l16.1,1.2c-4.5,13.9-13.6,20.8-27.3,20.8c-6,0-11.1-1.2-15.3-3.6c-4.2-2.4-7.6-5.9-10.4-10.5c-2.7-4.6-4.1-10.1-4.1-16.6
			c0-9.6,2.7-17.3,8.2-23.2c5.5-5.9,12.5-8.8,21.1-8.8c7.7,0,14.4,2.7,19.9,8.2C80.9,506.9,83.7,515.6,83.7,527.6z M44.9,517.3h21.4
			c-0.6-8.3-4-12.4-10.2-12.4C49.4,504.9,45.7,509,44.9,517.3z"/>
		<path class="st3" d="M147.4,554.7h-17.2c-0.6-2.4-0.8-5.5-0.8-9.4c-3,4.3-6,7.1-9,8.5s-6.4,2.1-10.2,2.1c-5.6,0-10.2-1.5-13.6-4.6
			c-3.5-3.1-5.2-7.2-5.2-12.3c0-3.8,1-7.2,3-10.4c2-3.2,5.3-5.7,9.8-7.5c4.5-1.8,12.6-3.1,24.5-4v-3.5c0-5.8-2.9-8.8-8.7-8.8
			c-6.2,0-9.7,2.9-10.4,8.8l-16.4-1.5c1.1-6.8,4.3-11.7,9.7-14.5c5.4-2.9,11.5-4.3,18.3-4.3c4.1,0,7.9,0.5,11.6,1.4
			c3.6,1,6.4,2.4,8.5,4.3s3.4,3.9,4.1,6c0.7,2.1,1.1,5.8,1.1,11.1v27.3C146.3,548.6,146.7,552.4,147.4,554.7z M128.6,525.8
			c-12.4,1.2-18.6,5-18.6,11.3c0,2.1,0.7,3.9,2,5.5c1.3,1.5,3.2,2.3,5.6,2.3c3.1,0,5.8-1.3,7.9-3.9c2.1-2.6,3.2-5.8,3.2-9.6V525.8z"
			/>
		<path class="st4" d="M206,509l-12.9,3.5c-1.5-5.4-5.4-8.2-11.7-8.2c-6,0-8.9,1.8-8.9,5.4c0,1.4,0.5,2.6,1.6,3.4
			c1.1,0.9,3.9,1.6,8.5,2.2c6.9,0.9,12,2,15.3,3.1c3.3,1.2,5.9,3.2,7.8,6c1.9,2.8,2.9,6.3,2.9,10.4c0,6.2-2.4,11.2-7.1,15.1
			c-4.7,3.9-11.3,5.8-19.7,5.8c-15.3,0-24.5-5.9-27.5-17.8l15-2.2c1.2,5.4,5.7,8.1,13.3,8.1c2.9,0,5.4-0.5,7.4-1.6
			c2-1.1,3-2.5,3-4.3c0-2.8-2.2-4.4-6.7-4.9c-12.2-1.5-20.1-3.8-24-7c-3.8-3.2-5.7-7.6-5.7-13.2c0-5.7,2.2-10.4,6.7-14.2
			c4.4-3.7,10.7-5.6,18.7-5.6c6.4,0,11.4,1.3,15.3,3.8S204,503.5,206,509z"/>
		<path class="st2" d="M265.3,494.5l-18.9,57.7c-2.1,6.4-3.9,11.1-5.4,14c-1.5,2.9-3.6,5.2-6.4,6.9c-2.8,1.7-6.7,2.6-11.7,2.6
			c-2.5,0-5.3-0.2-8.5-0.7v-13.6c3.1,0.6,6.1,0.8,8.7,0.8c3.5,0,5.9-0.7,7-2c1.2-1.3,2.1-3.2,2.7-5.5l-21.9-60.2h18.8l11.6,35.8
			l11.1-35.8H265.3z"/>
		<path class="st0" d="M330,491.2l-16.2,5.4c-2.2-6.4-6.8-9.7-13.8-9.7c-7.5,0-11.3,2.4-11.3,7.3c0,1.9,0.7,3.6,2.1,4.9
			c1.4,1.4,4.6,2.5,9.5,3.5c8.3,1.7,14.4,3.4,18.2,5.1c3.8,1.7,7.1,4.5,9.7,8.2s4,8,4,12.7c0,7.3-2.8,13.7-8.5,19.1
			c-5.7,5.4-14,8-25.1,8c-8.3,0-15.4-1.9-21.3-5.7c-5.9-3.8-9.7-9.4-11.6-16.9l17.6-4c2,7.6,7.5,11.4,16.5,11.4
			c4.4,0,7.6-0.8,9.8-2.5c2.1-1.7,3.2-3.7,3.2-6c0-2.4-1-4.2-2.9-5.5s-5.7-2.5-11.2-3.7c-10.4-2.1-17.7-5.1-22.1-8.8
			c-4.4-3.7-6.6-9.1-6.6-16.3c0-7.2,2.6-13.3,7.9-18.3c5.3-5,12.4-7.4,21.4-7.4C315.2,472.1,325.5,478.5,330,491.2z"/>
		<path class="st0" d="M363.4,473.4v38.2l25.5-38.2h18.2l-19.5,29l24.4,52.3h-21l-16.2-35.3L363.4,536v18.6h-18.7v-81.3H363.4z"/>
		<path class="st0" d="M480.3,473.4l-25.6,47.1v34.3h-19v-34.3l-25.6-47.1h22.1l15.5,30.8l15.4-30.8H480.3z"/>
	</g>
	<g>
		<g>
			<g>
				<linearGradient id="SVGID_1_" gradientUnits="userSpaceOnUse" x1="241.6745" y1="498.782" x2="128.3501" y2="7.9199">
					<stop  offset="0" style="stop-color:#07887C"/>
					<stop  offset="1" style="stop-color:#37959E"/>
				</linearGradient>
				<path class="st5" d="M387,206.2c-6.2-14.8-21.2-22.5-34.6-23.2c-13.2-0.7-22.8,5.6-26.1,8c-15.9,15.9-31.8,31.8-47.7,47.7
					c-0.3-12.9-0.7-25.9-1-38.8c0-52.9,13.2-140.6-22.9-159.1c-15.8-8.1-31.9-3.1-44.7,4c1.7-60.2-89.6-61.7-87.5,8
					c-24.6-16-57.4-6-65.6,19.9c-0.7,19.9-1.3,39.8-2,59.7c-17.4-5.6-37.1-6.1-47.7,8c-10.5,14-8,42.2-8,66.6
					c0,60.7-3.9,119.7,11.8,164.1c5.3,15.2,10.7,30.5,16,45.7c0,25.5,0,51,0,76.6c79.5,0,159.2,0,238.7,0c0-24.5,0-49.1,0-73.6
					c40.1-60.6,80.2-121.3,120.3-182C387.1,235.2,393.3,221.2,387,206.2z M344.2,273.5c-31.5,47.4-63,94.8-94.5,142.2
					c0,20.5,0,41.1,0,61.6c-68.9,0-137.9,0-206.8,0c0-21.2,0-42.4,0-63.6c-9.3-25.5-18.6-51-27.8-76.6c0-30.2,0-60.3,0-90.5
					c0-22.1-5.2-78,3-92.5c5.5-12.1,25.8-14.6,33.8-3c7.1,10.3,3.6,69.2,3,87.5c5.3,0,10.6,0,15.9,0c0-39.1,0-78.2,0-117.3
					c0-14.5-2.5-34.5,2-45.7c2.8-7,11.1-14.1,18.9-15.9c14.1-3.3,26.8,7.7,29.8,15.9c0.3,47.7,0.7,95.5,1,143.2c5.3,0,10.6,0,15.9,0
					c0.3-61.3,0.7-122.6,1-184c2.4-8.7,11-16.7,19.9-18.9c14.4-3.5,27.3,4.8,31.8,11.9c6.8,10.7,3,38.7,3,54.7
					c0,45.4,0,90.8,0,136.2c5.3,0,10.6,0,15.9,0c0-35.8,0-71.6,0-107.4c0.7-14.6,1.3-29.2,2-43.8c3.3-8.4,14.6-18.8,28.8-15.9
					c23.8,4.8,20.9,29.1,20.9,57.7c0,48.7,0,97.5,0,146.2c-8.7,12.1-24,30.7-41.8,21.9c-3.6,3.6-7.3,7.3-10.9,10.9
					c7,4.7,18.6,11.7,31.8,7c16.7-6,62.6-58.6,77.6-73.6c8.7-8.7,24.1-31.4,43.8-18.9C389,220,354.3,258.4,344.2,273.5z"/>
			</g>
		</g>
	</g>
	<g id="Слой_2">
	</g>
</g>
</svg>
