<?xml version="1.0" encoding="iso-8859-1"?>
<!-- Generator: Adobe Illustrator 18.0.0, SVG Export Plug-In . SVG Version: 6.00 Build 0)  -->
<!DOCTYPE svg PUBLIC "-//W3C//DTD SVG 1.1//EN" "http://www.w3.org/Graphics/SVG/1.1/DTD/svg11.dtd">
<svg version="1.1" id="Capa_1" xmlns="http://www.w3.org/2000/svg" xmlns:xlink="http://www.w3.org/1999/xlink" x="0px" y="0px"
	 viewBox="0 0 456.512 456.512" style="enable-background:new 0 0 456.512 456.512;" xml:space="preserve">
<g>
	<path d="M252.5,83.052c-46.715-46.714-122.723-46.713-169.436,0c-22.629,22.629-35.091,52.715-35.091,84.718
		c0,32.002,12.462,62.088,35.091,84.717c23.359,23.36,54.033,35.035,84.718,35.035c30.677,0,61.364-11.681,84.718-35.035
		c22.629-22.629,35.091-52.715,35.091-84.717C287.591,135.767,275.129,105.68,252.5,83.052z M241.186,241.173
		c-40.474,40.475-106.333,40.474-146.808,0c-19.607-19.607-30.405-45.676-30.405-73.404c0-27.729,10.798-53.797,30.405-73.404
		c20.238-20.237,46.821-30.356,73.404-30.356c26.583,0,53.167,10.119,73.404,30.356c19.607,19.607,30.405,45.675,30.405,73.404
		C271.591,195.497,260.793,221.566,241.186,241.173z"/>
	<path d="M167.782,73.026c-4.418,0-8,3.582-8,8s3.582,8,8,8c43.419,0,78.744,35.324,78.744,78.744c0,4.418,3.582,8,8,8s8-3.582,8-8
		C262.526,115.527,220.024,73.026,167.782,73.026z"/>
	<path d="M440.692,364.232L318.365,241.906c11.238-22.774,17.186-47.997,17.186-74.136c0-44.813-17.451-86.943-49.139-118.631
		C254.725,17.451,212.595,0,167.782,0c-44.813,0-86.943,17.451-118.63,49.138C17.464,80.826,0.013,122.956,0.013,167.769
		c0,44.813,17.451,86.943,49.139,118.63c31.687,31.688,73.817,49.139,118.63,49.139c26.14,0,51.362-5.948,74.136-17.185
		l122.326,122.326c10.21,10.21,23.785,15.833,38.225,15.833c14.438,0,28.014-5.623,38.224-15.833
		C461.768,419.602,461.768,385.309,440.692,364.232z M70.365,265.187c-26.021-26.021-40.352-60.618-40.352-97.417
		c0-36.8,14.331-71.396,40.352-97.418C96.386,44.331,130.982,30,167.782,30c36.799,0,71.396,14.331,97.417,40.352
		c26.021,26.021,40.352,60.618,40.352,97.417c0,36.799-14.33,71.396-40.352,97.417c-26.021,26.021-60.618,40.352-97.417,40.352
		C130.982,305.538,96.386,291.208,70.365,265.187z M419.479,419.466c-4.544,4.544-10.585,7.046-17.011,7.046
		s-12.467-2.502-17.011-7.046L268.193,302.202c6.384-4.789,12.475-10.058,18.219-15.802c5.744-5.744,11.013-11.835,15.802-18.219
		l117.264,117.264C428.858,394.824,428.858,410.087,419.479,419.466z"/>
</g>
<g>
</g>
<g>
</g>
<g>
</g>
<g>
</g>
<g>
</g>
<g>
</g>
<g>
</g>
<g>
</g>
<g>
</g>
<g>
</g>
<g>
</g>
<g>
</g>
<g>
</g>
<g>
</g>
<g>
</g>
</svg>
